# xmcd CD database file
#
# Track frame offsets:
#	150
#	20685
#	36504
#	47151
#	62470
#	85011
#	98915
#	117263
#	134404
#	148517
#	156929
#	172788
#	186625
#
# Disc length: 2761 seconds
#
# Revision: 3
# Processed by: cddbd v1.5.2PL0 Copyright (c) Steve Scherf et al.
# Submitted via: CDex 1.40Release
#
DISCID=b30ac70d
DTITLE=Charlotte Rampling - Comme une femme
DYEAR=2002
DGENRE=Chanson
TTITLE0=je suis farniente
TTITLE1=on aime se sentir aimee
TTITLE2=le robot et la marguerite
TTITLE3=comme une femme regarde un homme
TTITLE4=j'aurais voulu etre une vamp
TTITLE5=les secrets d'un coeur
TTITLE6=on ne couche pas
TTITLE7=depot de bilan d'un amour
TTITLE8=god save l'amour !
TTITLE9=je pourrais mourir pour toi
TTITLE10=we love
TTITLE11=my heart and i
TTITLE12=i'm not crazy
EXTD=YEAR: 2002 ID3G: 102
EXTT0=
EXTT1=
EXTT2=
EXTT3=
EXTT4=
EXTT5=
EXTT6=
EXTT7=
EXTT8=
EXTT9=
EXTT10=
EXTT11=
EXTT12=
PLAYORDER=
